<svg width="22" height="20" viewBox="0 0 22 20" fill="none" xmlns="http://www.w3.org/2000/svg">
<path d="M0.5 5C0.5 4.72386 0.723858 4.5 1 4.5H15C15.2761 4.5 15.5 4.72386 15.5 5V17C15.5 18.3807 14.3807 19.5 13 19.5H3C1.61929 19.5 0.5 18.3807 0.5 17V5Z" stroke="white"/>
<path fill-rule="evenodd" clip-rule="evenodd" d="M12.8161 6.00004C12.8161 6.00008 12.8161 6.00013 12.8161 6.00017C12.8161 8.6601 10.6598 10.8164 7.99983 10.8164C5.3399 10.8164 3.18359 8.6601 3.18359 6.00017C3.18359 6.00013 3.18359 6.00008 3.18359 6.00004H4.18359C4.18359 6.00008 4.18359 6.00013 4.18359 6.00017C4.18359 8.10782 5.89218 9.81641 7.99983 9.81641C10.1075 9.81641 11.8161 8.10782 11.8161 6.00017C11.8161 6.00013 11.8161 6.00008 11.8161 6.00004H12.8161Z" fill="white"/>
<path d="M19.8271 5.06693C19.5059 5.06693 19.2226 5.00669 18.9772 4.88622C18.7362 4.76129 18.5488 4.59397 18.415 4.38426C18.2856 4.17009 18.2209 3.93584 18.2209 3.68152H18.9236C18.9236 3.88676 19.0039 4.05854 19.1645 4.19686C19.3296 4.33518 19.5505 4.40434 19.8271 4.40434C20.0904 4.40434 20.3023 4.33518 20.463 4.19686C20.628 4.05854 20.7106 3.88453 20.7106 3.67482C20.7106 3.45173 20.628 3.26879 20.463 3.12601C20.3023 2.98323 20.0859 2.91184 19.8138 2.91184H19.5126V2.2961H19.8138C20.0725 2.2961 20.2756 2.22918 20.4228 2.09532C20.57 1.957 20.6437 1.78522 20.6437 1.57997C20.6437 1.39704 20.5678 1.24087 20.4161 1.11148C20.2644 0.977621 20.0658 0.910693 19.8204 0.910693C19.584 0.910693 19.3854 0.977621 19.2248 1.11148C19.0686 1.24533 18.9905 1.40373 18.9905 1.58667H18.2878C18.2878 1.34573 18.3525 1.12486 18.4819 0.924078C18.6157 0.718832 18.7987 0.555974 19.0307 0.435503C19.2672 0.31057 19.5349 0.248104 19.8338 0.248104C20.1283 0.248104 20.3893 0.30834 20.6169 0.42881C20.8489 0.544819 21.0274 0.703216 21.1523 0.904C21.2817 1.10478 21.3464 1.32788 21.3464 1.57328C21.3464 1.82761 21.2728 2.04624 21.1255 2.22918C20.9828 2.40765 20.8244 2.52812 20.6504 2.59059V2.62405C20.8422 2.68652 21.0162 2.81368 21.1724 3.00554C21.333 3.1974 21.4133 3.43165 21.4133 3.70829C21.4133 3.95369 21.3464 4.18125 21.2125 4.39095C21.0787 4.5962 20.8913 4.76129 20.6504 4.88622C20.4094 5.00669 20.135 5.06693 19.8271 5.06693Z" fill="white"/>
</svg>
