<svg xmlns="http://www.w3.org/2000/svg" version="1.1" xmlns:xlink="http://www.w3.org/1999/xlink" width="512" height="512" x="0" y="0" viewBox="0 0 50 50" style="enable-background:new 0 0 512 512" xml:space="preserve" class=""><g><path d="M24.994 49.149C11.682 49.149.851 38.313.851 24.993.851 11.681 11.682.85 24.994.85 38.313.85 49.15 11.681 49.15 24.993c-.001 13.32-10.837 24.156-24.156 24.156zm0-46.298c-12.21 0-22.143 9.933-22.143 22.143 0 12.217 9.933 22.156 22.143 22.156 12.217 0 22.156-9.939 22.156-22.156-.001-12.21-9.94-22.143-22.156-22.143z" fill="#000000" opacity="1" data-original="#000000" class=""></path><path d="M35.696 26H14.304a1 1 0 0 1 0-2h21.393a1 1 0 1 1-.001 2z" fill="#000000" opacity="1" data-original="#000000" class=""></path><path d="M28.754 32.942a.999.999 0 0 1-.707-1.707L34.282 25l-6.235-6.235a.999.999 0 1 1 1.414-1.414l6.942 6.942a.999.999 0 0 1 0 1.414l-6.942 6.942a.997.997 0 0 1-.707.293z" fill="#000000" opacity="1" data-original="#000000" class=""></path></g></svg>