<svg xmlns="http://www.w3.org/2000/svg" version="1.1" xmlns:xlink="http://www.w3.org/1999/xlink" width="512" height="512" x="0" y="0" viewBox="0 0 32 32" style="enable-background:new 0 0 512 512" xml:space="preserve" fill-rule="evenodd" class=""><g><path d="M14.994 5.958H10v-.911a1 1 0 0 0-2 0v.911H6.992a3 3 0 0 0-3 3v16.047a3 3 0 0 0 3 3h18.004c.796 0 1.559-.316 2.121-.879a2.996 2.996 0 0 0 .879-2.121V8.958c0-.796-.316-1.559-.879-2.121a2.996 2.996 0 0 0-2.121-.879H24V5a1 1 0 0 0-2 0v.958h-5.006V5a1 1 0 0 0-2 0zm11.002 8.051v10.996a.997.997 0 0 1-1 1H6.992a.997.997 0 0 1-1-1V14.009zM24 7.958v1.038a1 1 0 0 1-2 0V7.958h-5.006v1.08a1 1 0 0 1-2 0v-1.08H10v1.08a1 1 0 0 1-2 0v-1.08H6.992a.997.997 0 0 0-1 1v3.051h20.004V8.958a.997.997 0 0 0-1-1z" fill="#000000" opacity="1" data-original="#000000" class=""></path><path d="M9 16.982h2v2H9zM9 21h2v2H9zM13 16.982h2v2h-2zM13 21h2v2h-2zM17 16.982h2v2h-2zM17 21h2v2h-2zM21 16.982h2v2h-2zM21 21h2v2h-2z" fill="#000000" opacity="1" data-original="#000000" class=""></path></g></svg>