<svg width="28" height="28" viewBox="0 0 28 28" fill="none" xmlns="http://www.w3.org/2000/svg">
<path d="M4.18293 4.18342C3.74534 4.621 3.49951 5.21449 3.49951 5.83333V7C3.49951 16.6647 11.3348 24.5 20.9995 24.5H22.1662C22.785 24.5 23.3785 24.2542 23.8161 23.8166C24.2537 23.379 24.4995 22.7855 24.4995 22.1667V18.3412C24.4996 18.0962 24.4225 17.8574 24.2793 17.6587C24.1361 17.46 23.9339 17.3114 23.7015 17.234L18.4597 15.4863C18.1933 15.3978 17.9039 15.4083 17.6446 15.5158C17.3853 15.6234 17.1735 15.8209 17.048 16.072L15.7297 18.7052C12.8731 17.4145 10.5851 15.1265 9.29434 12.2698L11.9275 10.9515C12.1786 10.826 12.3761 10.6142 12.4837 10.3549C12.5913 10.0956 12.6017 9.80623 12.5132 9.53983L10.7655 4.298C10.6882 4.06578 10.5397 3.86377 10.3413 3.72056C10.1428 3.57735 9.90427 3.50019 9.65951 3.5H5.83284C5.21401 3.5 4.62051 3.74583 4.18293 4.18342Z" stroke="black" stroke-linecap="round" stroke-linejoin="round"/>
</svg>
