<svg width="18" height="18" viewBox="0 0 18 18" fill="none" xmlns="http://www.w3.org/2000/svg">
<path d="M1.5293 2C1.5293 1.86739 1.58197 1.74021 1.67574 1.64645C1.76951 1.55268 1.89669 1.5 2.0293 1.5H16.0293C16.1619 1.5 16.2891 1.55268 16.3829 1.64645C16.4766 1.74021 16.5293 1.86739 16.5293 2V14C16.5293 14.663 16.2659 15.2989 15.7971 15.7678C15.3282 16.2366 14.6923 16.5 14.0293 16.5H4.0293C3.36626 16.5 2.73037 16.2366 2.26153 15.7678C1.79269 15.2989 1.5293 14.663 1.5293 14V2Z" stroke="black"/>
<path d="M13.3399 3.81006C13.3399 4.38 13.2277 4.94435 13.0096 5.4709C12.7915 5.99746 12.4718 6.4759 12.0688 6.8789C11.6658 7.28191 11.1873 7.60159 10.6608 7.8197C10.1342 8.0378 9.56987 8.15006 8.99994 8.15006C8.43047 8.15006 7.8666 8.03773 7.3406 7.8195C6.81461 7.60127 6.33683 7.28143 5.93462 6.8783C5.53241 6.47516 5.21368 5.99664 4.99666 5.47015C4.77965 4.94365 4.66862 4.37952 4.66993 3.81006" stroke="black" stroke-miterlimit="10"/>
</svg>
