<svg width="17" height="16" viewBox="0 0 17 16" fill="none" xmlns="http://www.w3.org/2000/svg">
<path d="M0.529297 1C0.529297 0.867392 0.581975 0.740215 0.675743 0.646447C0.769511 0.552679 0.896689 0.5 1.0293 0.5H15.0293C15.1619 0.5 15.2891 0.552679 15.3829 0.646447C15.4766 0.740215 15.5293 0.867392 15.5293 1V13C15.5293 13.663 15.2659 14.2989 14.7971 14.7678C14.3282 15.2366 13.6923 15.5 13.0293 15.5H3.0293C2.36626 15.5 1.73037 15.2366 1.26153 14.7678C0.792687 14.2989 0.529297 13.663 0.529297 13V1Z" stroke="black"/>
<path d="M12.3399 2.81006C12.3399 3.38 12.2277 3.94435 12.0096 4.4709C11.7915 4.99746 11.4718 5.4759 11.0688 5.8789C10.6658 6.28191 10.1873 6.60159 9.66078 6.8197C9.13423 7.0378 8.56987 7.15006 7.99994 7.15006C7.43047 7.15006 6.8666 7.03773 6.3406 6.8195C5.81461 6.60127 5.33683 6.28143 4.93462 5.8783C4.53241 5.47516 4.21368 4.99664 3.99666 4.47015C3.77965 3.94365 3.66862 3.37952 3.66993 2.81006" stroke="black" stroke-miterlimit="10"/>
</svg>
