<svg width="20" height="20" viewBox="0 0 20 20" fill="none" xmlns="http://www.w3.org/2000/svg">
<path d="M13.8471 2C12.3492 2 10.9534 2.91916 10.2384 4.31489C10.1704 4.41702 10.0341 4.45111 9.96609 4.31489C9.18314 2.91916 7.82138 2 6.25559 2C3.90661 2 2 4.11075 2 6.73209C2 9.42154 4.92761 14.3577 9.82982 17.9322C9.89787 17.9663 9.93195 18.0002 10 18.0002C10.068 18.0002 10.1021 18.0002 10.1702 17.9662C14.9361 14.8343 18 9.14888 18 6.62979C18.0002 4.07667 16.1278 2.00012 13.8468 2.00012L13.8471 2Z" stroke="white"/>
</svg>
