<svg width="18" height="18" viewBox="0 0 18 18" fill="none" xmlns="http://www.w3.org/2000/svg">
<path d="M12.8471 1C11.3492 1 9.95336 1.91916 9.2384 3.31489C9.17035 3.41702 9.03414 3.45111 8.96609 3.31489C8.18314 1.91916 6.82138 1 5.25559 1C2.90661 1 1 3.11075 1 5.73209C1 8.42154 3.92761 13.3577 8.82982 16.9322C8.89787 16.9663 8.93195 17.0002 9 17.0002C9.06805 17.0002 9.10213 17.0002 9.17018 16.9662C13.9361 13.8343 17 8.14888 17 5.62979C17.0002 3.07667 15.1278 1.00012 12.8468 1.00012L12.8471 1Z" stroke="white"/>
</svg>
