<svg xmlns="http://www.w3.org/2000/svg" version="1.1" xmlns:xlink="http://www.w3.org/1999/xlink" width="512" height="512" x="0" y="0" viewBox="0 0 64 64" style="enable-background:new 0 0 512 512" xml:space="preserve" class=""><g><path d="m21.293 46.7 23.436-23.436 5.176-5.176L63.499 4.494 59.255.252 44.559 14.948c-3.858-1.906-8.096-3.196-12.558-3.196-17.674 0-32 20-32 20s5.602 7.792 14.104 13.65L.001 59.506l4.242 4.242 15.184-15.184zm-1.292-14.948c0-6.628 5.372-12 12-12 2.224 0 4.304.61 6.086 1.668l-16.42 16.42a11.913 11.913 0 0 1-1.666-6.088zM53.137 20.512l-9.306 9.306c.102.632.17 1.274.17 1.934 0 6.628-5.372 12-12 12-.66 0-1.302-.068-1.934-.17l-6.652 6.652c2.734.942 5.61 1.518 8.584 1.518 17.674 0 32-20 32-20s-4.204-5.862-10.862-11.24z" fill="#000000" opacity="1" data-original="#000000" class=""></path></g></svg>