<svg width="16" height="16" viewBox="0 0 16 16" fill="none" xmlns="http://www.w3.org/2000/svg">
<path d="M13.8064 2.60153C13.8064 2.60153 15.1014 2.10374 14.9935 3.31265C14.9575 3.81044 14.6338 5.55269 14.382 7.43717L13.5186 13.0195C13.5186 13.0195 13.4466 13.8373 12.7991 13.9795C12.1515 14.1217 11.1802 13.4817 11.0003 13.3395C10.8564 13.2328 8.3022 11.6328 7.40283 10.8506C7.15101 10.6372 6.86321 10.2106 7.43881 9.71277L11.2162 6.15715C11.6479 5.73047 12.0796 4.7349 10.2808 5.94381L5.24434 9.32165C5.24434 9.32165 4.66875 9.67721 3.5895 9.35721L1.25114 8.64608C1.25114 8.64608 0.387742 8.11274 1.86271 7.5794C5.46019 5.90825 9.8851 4.20156 13.8064 2.60153Z" fill="#6C6C6C"/>
</svg>
