<svg width="24" height="24" viewBox="0 0 24 24" fill="none" xmlns="http://www.w3.org/2000/svg">
<path d="M20.7094 3.90229C20.7094 3.90229 22.652 3.15561 22.4902 4.96898C22.4362 5.71566 21.9505 8.32904 21.5728 11.1558L20.2777 19.5292C20.2777 19.5292 20.1698 20.7559 19.1985 20.9693C18.2271 21.1826 16.7702 20.2226 16.5004 20.0093C16.2845 19.8493 12.4532 17.4492 11.1041 16.2759C10.7264 15.9558 10.2947 15.3158 11.1581 14.5692L16.8241 9.23572C17.4717 8.59571 18.1192 7.10235 15.4211 8.91572L7.86639 13.9825C7.86639 13.9825 7.003 14.5158 5.38413 14.0358L1.87658 12.9691C1.87658 12.9691 0.581491 12.1691 2.79394 11.3691C8.19017 8.86238 14.8275 6.30233 20.7094 3.90229Z" fill="black"/>
</svg>
