<svg width="20" height="20" viewBox="0 0 20 20" fill="none" xmlns="http://www.w3.org/2000/svg">
<path d="M9.5 11C11.9853 11 14 8.98528 14 6.5C14 4.01472 11.9853 2 9.5 2C7.01472 2 5 4.01472 5 6.5C5 8.98528 7.01472 11 9.5 11Z" stroke="white"/>
<path d="M1 19C1 16.8783 1.89553 14.8434 3.48959 13.3431C5.08365 11.8429 7.24566 11 9.5 11C10.6162 11 11.7215 11.2069 12.7528 11.609C13.7841 12.011 14.7211 12.6003 15.5104 13.3431C16.2997 14.086 16.9258 14.9679 17.353 15.9385C17.7801 16.9091 18 17.9494 18 19" stroke="white"/>
</svg>
