<svg width="18" height="18" viewBox="0 0 18 18" fill="none" xmlns="http://www.w3.org/2000/svg">
<path d="M8.9707 9.5C11.1798 9.5 12.9707 7.70914 12.9707 5.5C12.9707 3.29086 11.1798 1.5 8.9707 1.5C6.76156 1.5 4.9707 3.29086 4.9707 5.5C4.9707 7.70914 6.76156 9.5 8.9707 9.5Z" stroke="white"/>
<path d="M1.5 16.92C1.5 14.9521 2.28175 13.0648 3.67327 11.6733C5.06479 10.2817 6.95209 9.5 8.92 9.5C9.89441 9.5 10.8593 9.69192 11.7595 10.0648C12.6597 10.4377 13.4777 10.9843 14.1667 11.6733C14.8557 12.3623 15.4023 13.1803 15.7752 14.0805C16.1481 14.9807 16.34 15.9456 16.34 16.92" stroke="white"/>
</svg>
