<svg width="12" height="12" viewBox="0 0 12 12" fill="none" xmlns="http://www.w3.org/2000/svg">
<g clip-path="url(#clip0_2363_5710)">
<path d="M5.83717 4.14837C6.16061 4.14837 6.47679 4.24428 6.74572 4.42398C7.01464 4.60367 7.22425 4.85907 7.34802 5.15789C7.4718 5.45671 7.50418 5.78552 7.44108 6.10274C7.37798 6.41997 7.22223 6.71136 6.99353 6.94006C6.76482 7.16877 6.47343 7.32452 6.15621 7.38762C5.83899 7.45072 5.51018 7.41833 5.21136 7.29456C4.91254 7.17078 4.65714 6.96118 4.47744 6.69225C4.29775 6.42332 4.20184 6.10714 4.20184 5.78371C4.20184 5.56895 4.24414 5.3563 4.32632 5.15789C4.40851 4.95948 4.52896 4.77921 4.68082 4.62735C4.9875 4.32067 5.40346 4.14837 5.83717 4.14837ZM5.83717 3.41504C5.3687 3.41504 4.91074 3.55396 4.52121 3.81423C4.13169 4.0745 3.82809 4.44444 3.64881 4.87726C3.46953 5.31007 3.42262 5.78633 3.51402 6.24581C3.60542 6.70529 3.83101 7.12734 4.16227 7.45861C4.49354 7.78987 4.91559 8.01546 5.37507 8.10686C5.83455 8.19825 6.31081 8.15135 6.74362 7.97207C7.17644 7.79279 7.54638 7.48919 7.80665 7.09967C8.06692 6.71014 8.20584 6.25218 8.20584 5.78371C8.20584 5.1555 7.95628 4.55302 7.51207 4.10881C7.06786 3.66459 6.46538 3.41504 5.83717 3.41504Z" fill="black"/>
<path d="M5.83737 2.73333C8.03737 2.73333 10.01 4.85267 10.7654 5.76933C10.0247 6.69333 8.03737 8.81267 5.83737 8.81267C3.63737 8.81267 1.67204 6.69333 0.924036 5.784C1.67204 4.85267 3.63737 2.73333 5.83737 2.73333ZM5.83737 2C2.61804 2 -0.0292969 5.784 -0.0292969 5.784C-0.0292969 5.784 2.5887 9.56067 5.83737 9.56067C9.08604 9.56067 11.704 5.784 11.704 5.784C11.704 5.784 9.08604 2 5.83737 2Z" fill="black"/>
</g>
<defs>
<clipPath id="clip0_2363_5710">
<rect width="11.704" height="7.55333" fill="white" transform="translate(0 2)"/>
</clipPath>
</defs>
</svg>
