<svg width="16" height="16" viewBox="0 0 16 16" fill="none" xmlns="http://www.w3.org/2000/svg">
<path d="M1.55427 7.9415C1.55387 9.07667 1.85181 10.1849 2.41836 11.162L1.5 14.5L4.93136 13.6043C5.87678 14.1172 6.94121 14.3879 8.0245 14.3883H8.0273C11.5947 14.3883 14.4985 11.4984 14.5 7.94656C14.5007 6.22529 13.828 4.60699 12.6058 3.38926C11.3839 2.1717 9.75873 1.50081 8.02701 1.5C4.45939 1.5 1.55582 4.38952 1.55427 7.9415ZM8.0273 14.3883C8.02716 14.3883 8.02723 14.3883 8.0273 14.3883V14.3883Z" fill="#6C6C6C"/>
<path fill-rule="evenodd" clip-rule="evenodd" d="M6.3523 5.14998C6.22677 4.87223 6.0947 4.86667 5.97532 4.86178C5.87761 4.85764 5.76587 4.85791 5.65425 4.85791C5.5425 4.85791 5.361 4.89966 5.20752 5.06656C5.05391 5.23346 4.62109 5.63692 4.62109 6.45747C4.62109 7.2781 5.22151 8.07102 5.30516 8.1824C5.38896 8.29358 6.4642 10.0314 8.16695 10.6998C9.58221 11.2554 9.87021 11.1449 10.1774 11.1171C10.4845 11.0893 11.1686 10.7137 11.3082 10.3243C11.4478 9.93486 11.4478 9.60106 11.4059 9.53135C11.3641 9.46184 11.2523 9.4201 11.0848 9.33675C10.9172 9.25333 10.0936 8.84981 9.94003 8.79415C9.78642 8.73856 9.67473 8.7108 9.56298 8.87777C9.45129 9.04454 9.13043 9.4201 9.03266 9.53135C8.93495 9.6428 8.83718 9.65672 8.66965 9.5733C8.50206 9.48961 7.96247 9.31367 7.32237 8.74555C6.8243 8.30348 6.48808 7.75755 6.39031 7.59057C6.2926 7.4238 6.37988 7.33346 6.46388 7.2503C6.53915 7.17557 6.63147 7.05557 6.71527 6.95823C6.79886 6.86083 6.82675 6.79132 6.88259 6.68007C6.9385 6.56875 6.91054 6.47135 6.86868 6.38792C6.82675 6.3045 6.50127 5.47978 6.3523 5.14998Z" fill="white"/>
</svg>
