<svg width="24" height="24" viewBox="0 0 24 24" fill="none" xmlns="http://www.w3.org/2000/svg">
<path d="M2.33141 11.9123C2.3308 13.615 2.77772 15.2774 3.62753 16.743L2.25 21.75L7.39705 20.4064C8.81517 21.1758 10.4118 21.5819 12.0368 21.5824H12.0409C17.3921 21.5824 21.7477 17.2475 21.75 11.9198C21.751 9.33793 20.742 6.91049 18.9087 5.08389C17.0758 3.25756 14.6381 2.25121 12.0405 2.25C6.68908 2.25 2.33373 6.58427 2.33141 11.9123ZM12.0409 21.5824C12.0407 21.5824 12.0408 21.5824 12.0409 21.5824V21.5824Z" fill="black"/>
<path fill-rule="evenodd" clip-rule="evenodd" d="M9.52942 7.72522C9.34114 7.30858 9.14303 7.30025 8.96395 7.29291C8.81739 7.28671 8.64978 7.28711 8.48235 7.28711C8.31473 7.28711 8.04248 7.34973 7.81226 7.60008C7.58184 7.85044 6.93262 8.45563 6.93262 9.68645C6.93262 10.9174 7.83325 12.1068 7.95872 12.2738C8.08441 12.4406 9.69728 15.0473 12.2514 16.05C14.3743 16.8833 14.8063 16.7176 15.267 16.6758C15.7278 16.6342 16.7539 16.0708 16.9632 15.4866C17.1727 14.9025 17.1727 14.4018 17.1099 14.2973C17.0471 14.193 16.8795 14.1304 16.6282 14.0054C16.3768 13.8802 15.1413 13.275 14.911 13.1915C14.6806 13.1081 14.5131 13.0664 14.3454 13.3169C14.1779 13.5671 13.6966 14.1304 13.55 14.2973C13.4034 14.4644 13.2567 14.4853 13.0055 14.3602C12.7541 14.2347 11.9447 13.9707 10.9845 13.1186C10.2374 12.4555 9.7331 11.6366 9.58644 11.3861C9.43988 11.1359 9.57079 11.0004 9.69679 10.8757C9.8097 10.7636 9.94818 10.5836 10.0739 10.4376C10.1993 10.2915 10.2411 10.1872 10.3249 10.0203C10.4087 9.85337 10.3668 9.70727 10.304 9.58213C10.2411 9.457 9.75288 8.21992 9.52942 7.72522Z" fill="white"/>
</svg>
