<?xml version="1.0" encoding="utf-8" ?>
<!-- Generator: Adobe Illustrator 27.0.1, SVG Export Plug-In . SVG Version: 6.00 Build 0)  -->
<svg
    version="1.1"
    id="Layer_1"
    xmlns="http://www.w3.org/2000/svg"
    xmlns:xlink="http://www.w3.org/1999/xlink"
    x="0px"
    y="0px"
    viewBox="0 0 838 372"
    style="enable-background:new 0 0 838 372;"
    xml:space="preserve"
>
<g>
	<path
            d="M27.9,219.3c0-47.1,33.6-75.9,75-75.9c6.9,0,16.5,1.2,21.9,3.3v56.1c-4.5-3.3-11.7-7.2-19.5-7.2
		c-13.8,0-23.7,8.7-23.7,22.2c0,14.1,9.9,22.2,23.7,22.2c7.8,0,15-1.8,19.5-6.6v54c-5.4,2.4-15,3.6-22.2,3.6
		C64.2,291,27.9,268.2,27.9,219.3z"
        />
	<path
            d="M138.6,79.2h55.2v80.7c6.6-10.8,20.1-17.7,34.8-17.7c27.9,0,42,19.8,42,52.8v94.2h-55.2v-83.4c0-9.3-2.7-15.6-10.8-15.6
		c-7.8,0-10.8,5.4-10.8,15.6v83.4h-55.2V79.2z"
        />
	<path
            d="M282.6,218.7c0-45.3,31.2-76.5,62.7-76.5c24,0,36.9,11.1,41.4,22.2v-19.2h54.6v144h-55.2v-21c-6,14.4-20.1,24.6-40.8,24.6
		C307.9,292.8,282.6,263.1,282.6,218.7z M363.1,243.6c15.3,0,25.2-12,25.2-26.7c0-15.3-9.9-27.3-25.2-27.3s-25.2,12-25.2,27.3
		C337.9,231.6,347.8,243.6,363.1,243.6z"
        />
	<path
            d="M483,81.6c16.5,0,28.8,12.3,28.8,29.1c0,14.7-12.3,28.2-28.8,28.2c-15.6,0-28.2-13.5-28.2-28.2
		C454.8,93.9,467.5,81.6,483,81.6z M455.8,289.2v-144H511v144H455.8z"
        />
	<path
            d="M525.3,79.2h55.2v119.1l20.4-53.1h55.2l-26.7,68.7l28.5,75.3h-57.3l-20.1-62.4v62.4h-55.2V79.2z"
        />
	<path
            d="M651.3,218.7c0-45.3,31.2-76.5,62.7-76.5c24,0,36.9,11.1,41.4,22.2v-19.2h54.6v144h-55.2v-21c-6,14.4-20.1,24.6-40.8,24.6
		C676.5,292.8,651.3,263.1,651.3,218.7z M731.8,243.6c15.3,0,25.2-12,25.2-26.7c0-15.3-9.9-27.3-25.2-27.3
		c-15.3,0-25.2,12-25.2,27.3C706.5,231.6,716.5,243.6,731.8,243.6z"
        />
</g>
</svg>
