<svg xmlns="http://www.w3.org/2000/svg" width="20" height="20" viewBox="0 0 20 20" fill="none">
<path fill-rule="evenodd" clip-rule="evenodd" d="M11.0003 18.9935L11 19.0048C10.9972 19.5547 10.5505 20 10 20C9.44947 20 9.00284 19.5547 9.00001 19.0048L8.99973 18.9935C8.99932 18.98 8.99836 18.9555 8.99618 18.9215C8.99181 18.8531 8.98259 18.7469 8.96325 18.6121C8.92435 18.3409 8.84592 17.964 8.68981 17.5518C8.38002 16.7337 7.7783 15.8032 6.57091 15.2296C3.87043 13.9468 2 11.1928 2 8C2 3.58172 5.58172 0 10 0C14.4183 0 18 3.58172 18 8C18 11.1928 16.1296 13.9468 13.4291 15.2296C12.2217 15.8032 11.62 16.7337 11.3102 17.5518C11.1541 17.964 11.0757 18.3409 11.0367 18.6121C11.0174 18.7469 11.0082 18.8531 11.0038 18.9215C11.0016 18.9555 11.0007 18.98 11.0003 18.9935ZM10 11C11.6569 11 13 9.65685 13 8C13 6.34315 11.6569 5 10 5C8.34315 5 7 6.34315 7 8C7 9.65685 8.34315 11 10 11Z" fill="#0B0F14"/>
</svg>